<?xml version="1.0" standalone="no"?>
<svg viewBox="0 0 200 200" xmlns="http://www.w3.org/2000/svg">
  <path fill="#0F62FE" d="M16.2,-29.7C26.3,-22.1,43.7,-28.7,55.2,-26.1C66.6,-23.5,72,-11.8,71.5,-0.3C70.9,11.1,64.3,22.2,53.5,25.8C42.6,29.5,27.6,25.6,18,20.7C8.4,15.9,4.2,10.1,-5.7,19.9C-15.5,29.7,-31,55.1,-40.5,59.9C-49.9,64.6,-53.3,48.7,-52.6,35.3C-51.8,21.8,-46.9,10.9,-41.4,3.2C-35.9,-4.6,-29.9,-9.2,-26.8,-15.9C-23.7,-22.6,-23.5,-31.4,-19.5,-42.6C-15.5,-53.8,-7.7,-67.3,-2.4,-63.2C3,-59,6,-37.3,16.2,-29.7Z" transform="translate(100 100)" />
</svg>
